<svg width="100" height="100" viewBox="0 0 100 100" fill="none" xmlns="http://www.w3.org/2000/svg">
<path fill-rule="evenodd" clip-rule="evenodd" d="M40.5699 36.79C40.5699 39.291 41.5635 41.6895 43.3319 43.458C45.1004 45.2265 47.499 46.22 49.9999 46.22C52.5009 46.22 54.8995 45.2265 56.668 43.458C58.4364 41.6895 59.4299 39.291 59.4299 36.79C59.4299 31.57 49.9999 17.93 49.9999 17.93C49.9999 17.93 40.5699 31.57 40.5699 36.79Z" fill="#696868"/>
<path fill-rule="evenodd" clip-rule="evenodd" d="M18.33 72.64C18.33 75.141 19.3235 77.5395 21.0919 79.308C22.8604 81.0765 25.259 82.07 27.76 82.07C30.2609 82.07 32.6595 81.0765 34.428 79.308C36.1964 77.5395 37.19 75.141 37.19 72.64C37.19 67.43 27.76 53.78 27.76 53.78C27.76 53.78 18.33 67.43 18.33 72.64Z" fill="#696868"/>
<path fill-rule="evenodd" clip-rule="evenodd" d="M72.2401 53.78C72.2401 53.78 62.8101 67.43 62.8101 72.64C62.8101 75.141 63.8036 77.5395 65.572 79.308C67.3405 81.0765 69.7391 82.07 72.2401 82.07C74.741 82.07 77.1396 81.0765 78.9081 79.308C80.6765 77.5395 81.6701 75.141 81.6701 72.64C81.6701 67.43 72.2401 53.78 72.2401 53.78Z" fill="#696868"/>
</svg>
